<?xml version="1.0" encoding="iso-8859-1"?>
<!-- Generator: Adobe Illustrator 19.0.0, SVG Export Plug-In . SVG Version: 6.00 Build 0)  -->
<svg version="1.1" id="Capa_1" xmlns="http://www.w3.org/2000/svg" xmlns:xlink="http://www.w3.org/1999/xlink" x="0px" y="0px"
	 viewBox="0 0 512 512" style="enable-background:new 0 0 512 512;" xml:space="preserve">
<g>
	<g>
		<path d="M270.719,360.449c-5.982-25.301-21.958-45.948-34.307-58.813c-8.214-8.556-20.973-11.004-31.75-6.091
			c-13.354,6.088-26.604,13.543-39.382,22.158c-3.435,2.315-4.342,6.977-2.026,10.411c2.316,3.434,6.976,4.342,10.411,2.026
			c12.094-8.153,24.617-15.201,37.219-20.947c4.987-2.274,10.898-1.136,14.706,2.83c11.055,11.518,25.327,29.868,30.53,51.877
			c6.33,26.77-2.494,52.57-26.225,76.683c-15.862,16.116-32.575,24.106-50.64,24.105c-7.393,0-15.016-1.339-22.894-4.007
			c-23.979-8.121-44.818-26.718-58.407-40c-4.753-4.646-5.25-12.078-1.156-17.29c17.354-22.083,35.014-40.444,53.992-56.132
			c3.192-2.64,3.641-7.367,1.001-10.56c-2.638-3.192-7.365-3.641-10.559-1.002c-19.814,16.38-38.206,35.491-56.228,58.428
			c-8.835,11.246-7.775,27.275,2.466,37.285c14.637,14.306,37.204,34.376,64.08,43.479c9.493,3.215,18.755,4.82,27.771,4.819
			c22.003,0,42.526-9.561,61.266-28.603C268.176,423.073,278.315,392.571,270.719,360.449z"/>
	</g>
</g>
<g>
	<g>
		<path d="M474.841,151.601c-9.102-26.876-29.173-49.443-43.479-64.081c-5.316-5.439-12.43-8.434-20.034-8.434
			c-6.227,0-12.353,2.12-17.252,5.968c-45.521,35.766-78.688,76.025-98.581,119.658c-4.913,10.776-2.466,23.536,6.091,31.75
			c31.609,30.341,60.425,36.71,79.034,36.71c0.001,0,0.001,0,0.002,0c24.799,0,48.498-10.946,70.434-32.535
			C477.901,214.218,485.903,184.262,474.841,151.601z M440.535,229.945c-19.032,18.73-39.19,28.227-59.913,28.226
			c-15.855,0-40.636-5.645-68.647-32.531c-3.966-3.807-5.104-9.717-2.83-14.706c18.89-41.432,50.583-79.815,94.2-114.086
			c2.3-1.808,5.061-2.763,7.983-2.763c3.531,0,6.835,1.392,9.305,3.919c13.281,13.589,31.877,34.428,40,58.406
			C469.821,183.539,463.247,207.592,440.535,229.945z"/>
	</g>
</g>
<g>
	<g>
		<path d="M491.841,115.529c-18.672-23.399-25.433-40.083-27.715-50.446c2.362-0.98,4.389-2.7,5.777-4.996
			c2.234-3.698,2.366-8.194,0.352-12.025l-5.338-10.153l5.338-10.153c2.014-3.831,1.882-8.326-0.352-12.024
			c-2.582-4.275-7.642-6.59-12.563-5.749l-11.306,1.939l-8.006-8.214C435.7,1.315,432.594,0,429.283,0
			c-6.155,0-11.264,4.413-12.148,10.493l-1.649,11.352l-10.286,5.076c-4.136,2.041-6.727,6.137-6.82,10.731
			c-15.189,11.668-28.901,22.886-40.771,33.375c-3.104,2.743-3.396,7.482-0.654,10.586c2.743,3.104,7.482,3.396,10.586,0.654
			c11.517-10.177,24.815-21.071,39.584-32.427l8.36,4.126l1.649,11.352c0.709,4.876,4.359,8.941,9.149,10.121
			c0.048,0.012,0.096,0.021,0.144,0.033c4.074,0.997,8.643-0.327,11.602-3.366l8.006-8.214c0.896,0.154,1.791,0.307,2.687,0.461
			c2.073,13.224,9.613,33.235,31.394,60.529c36.502,45.744,5.791,98.399-18.111,122.3c-0.179,0.178-0.348,0.366-0.507,0.561
			c-21.372,26.188-70.667,62.047-119.854,30.338c-16.803-10.832-32.345-18.284-46.197-22.148
			c-11.288-3.148-22.99-0.063-31.307,8.254c-8.316,8.316-11.402,20.02-8.253,31.306c3.864,13.853,11.316,29.395,22.148,46.198
			c31.709,49.188-4.151,98.482-30.338,119.854c-0.195,0.16-0.383,0.329-0.561,0.507c-23.902,23.901-76.557,54.612-122.3,18.111
			c-27.293-21.779-47.306-29.321-60.529-31.394l-0.461-2.687l7.006-6.829c3.78-3.685,6.04-8.405,4.307-13.736
			c-1.419-4.367-5.337-7.678-9.888-8.335l-11.352-1.649l-4.132-8.373c28.494-37.401,59.017-75.926,120.84-112.745
			c20.695-12.326,42.095-25.07,70.381-53.357s41.033-49.687,53.358-70.382c12.542-21.056,24.386-40.944,51.961-68.533
			c2.928-2.93,2.927-7.678-0.003-10.606s-7.679-2.927-10.606,0.003c-28.896,28.91-41.78,50.542-54.239,71.461
			c-12.401,20.821-24.114,40.488-51.078,67.451s-46.629,38.676-67.45,51.076c-32.237,19.2-65.556,39.044-125.356,116.901
			c-4.59,0.096-8.683,2.687-10.723,6.819l-5.076,10.286c0,0-11.342,1.648-11.352,1.649c-9.846,1.431-13.921,13.942-6.789,20.894
			l8.218,8.005c0,0-1.937,11.297-1.938,11.306c-1.263,7.366,4.599,14.331,12.073,14.331c5.456,0,11.151-4.283,15.855-6.755
			c0,0,10.151,5.337,10.152,5.337c5.057,2.659,11.405,1.4,15.084-2.962c0.811-0.962,1.448-2.035,1.921-3.17
			c10.361,2.277,27.05,9.035,50.464,27.719c16.712,13.335,35.7,20.111,55.898,20.111c8.468,0,17.151-1.191,25.965-3.59
			c30.229-8.224,51.94-27.345,60.131-35.482c8.921-7.33,30.131-27.004,41.359-56.252c11.082-28.868,8.25-57.606-8.19-83.11
			c-10.015-15.536-16.848-29.701-20.308-42.102c-1.674-6-0.024-12.23,4.412-16.668c4.436-4.437,10.667-6.086,16.668-4.412
			c12.4,3.459,26.565,10.292,42.102,20.308c25.503,16.441,54.244,19.273,83.11,8.19c29.247-11.228,48.921-32.438,56.252-41.359
			c8.137-8.191,27.258-29.902,35.482-60.131C516.48,167.555,510.767,139.246,491.841,115.529z M450.965,43.607l3.417,6.499
			c-2.412-0.414-4.825-0.827-7.237-1.241c-0.044-0.008-0.09-0.007-0.134-0.015c-3.924-0.628-7.908,0.678-10.708,3.538l-5.125,5.258
			l-1.056-7.266c-0.012-0.083-0.037-0.162-0.051-0.245c-0.672-4.076-3.26-6.892-6.65-8.979l-6.481-3.199l-0.104-0.051l6.584-3.249
			c3.617-1.785,6.122-5.233,6.701-9.223l1.056-7.267l5.127,5.26c2.774,2.845,6.918,4.194,10.841,3.521l7.237-1.241l-3.417,6.499
			C449.088,35.775,449.088,40.038,450.965,43.607z M52.342,436.351c-2.853,2.786-4.197,6.917-3.523,10.843l1.241,7.237l-6.499-3.417
			c-3.536-1.859-7.865-1.859-11.4,0l-6.5,3.417l1.241-7.237c0.682-3.975-0.636-8.028-3.522-10.842l-5.258-5.125l7.264-1.057
			c3.991-0.58,7.439-3.085,9.223-6.701l3.25-6.585c1.083,2.195,2.167,4.39,3.25,6.585c1.785,3.617,5.233,6.122,9.223,6.701
			l7.267,1.056L52.342,436.351z"/>
	</g>
</g>
<g>
</g>
<g>
</g>
<g>
</g>
<g>
</g>
<g>
</g>
<g>
</g>
<g>
</g>
<g>
</g>
<g>
</g>
<g>
</g>
<g>
</g>
<g>
</g>
<g>
</g>
<g>
</g>
<g>
</g>
</svg>
